<svg width="105" height="20" viewBox="0 0 105 20" fill="none" xmlns="http://www.w3.org/2000/svg">
  <path
    d="M3.1187 19.9917L7.60248 12.157L4.78807 7.76562L0.36848 15.3924C0.36848 15.3924 -0.532952 16.8715 0.484012 18.5357C1.50098 20.1997 3.1187 19.9917 3.1187 19.9917Z"
    fill="url(#paint0_linear_506_273)" />
  <path
    d="M5.28279 0L14.2038 15.5309H8.81891L3.13333 5.61627C3.13333 5.61627 1.5387 3.55923 2.57877 1.5487C2.57877 1.5487 3.17954 0.138923 5.28279 0.000285263V0Z"
    fill="url(#paint1_linear_506_273)" />
  <path
    d="M8.64062 15.2295H17.1689C17.1689 15.2295 17.9548 16.451 17.3537 17.9897C16.887 19.1844 15.7237 19.7301 15.2271 19.9144C15.0901 19.9652 14.9455 19.9905 14.7997 19.9905H11.3218L8.64091 15.2295H8.64062Z"
    fill="url(#paint2_linear_506_273)" />
  <path d="M35.0547 15.9863V18.5H27.1807V15.9863H35.0547ZM28.2227 2.85938V18.5H25V2.85938H28.2227Z"
    fill="#fff" />
  <path
    d="M43.4224 15.8789V10.7012C43.4224 10.3288 43.3615 10.0101 43.2398 9.74512C43.1181 9.47298 42.9283 9.26172 42.6705 9.11133C42.4198 8.96094 42.094 8.88574 41.6929 8.88574C41.3492 8.88574 41.052 8.94661 40.8013 9.06836C40.5507 9.18294 40.3573 9.35124 40.2212 9.57324C40.0852 9.78809 40.0171 10.0423 40.0171 10.3359H36.9234C36.9234 9.8418 37.038 9.37272 37.2671 8.92871C37.4963 8.4847 37.8293 8.0944 38.2662 7.75781C38.703 7.41406 39.2222 7.14551 39.8238 6.95215C40.4325 6.75879 41.1129 6.66211 41.8648 6.66211C42.7671 6.66211 43.5692 6.8125 44.2711 7.11328C44.9729 7.41406 45.5243 7.86523 45.9254 8.4668C46.3336 9.06836 46.5377 9.82031 46.5377 10.7227V15.6963C46.5377 16.3337 46.577 16.8564 46.6558 17.2646C46.7346 17.6657 46.8492 18.0166 46.9996 18.3174V18.5H43.8736C43.7232 18.1849 43.6086 17.791 43.5298 17.3184C43.4582 16.8385 43.4224 16.3587 43.4224 15.8789ZM43.8306 11.4209L43.8521 13.1719H42.1226C41.7144 13.1719 41.3599 13.2184 41.0591 13.3115C40.7584 13.4046 40.5113 13.5371 40.3179 13.709C40.1246 13.8737 39.9813 14.0671 39.8882 14.2891C39.8023 14.5111 39.7593 14.7546 39.7593 15.0195C39.7593 15.2845 39.8202 15.5244 39.942 15.7393C40.0637 15.9469 40.2392 16.1117 40.4683 16.2334C40.6975 16.348 40.966 16.4053 41.274 16.4053C41.7395 16.4053 42.1441 16.3122 42.4879 16.126C42.8316 15.9398 43.0966 15.7106 43.2828 15.4385C43.4761 15.1663 43.5764 14.9085 43.5836 14.665L44.4 15.9756C44.2854 16.2692 44.1278 16.5736 43.9273 16.8887C43.7339 17.2038 43.4869 17.501 43.1861 17.7803C42.8853 18.0524 42.5237 18.278 42.1011 18.457C41.6786 18.6289 41.1773 18.7148 40.5972 18.7148C39.8596 18.7148 39.19 18.568 38.5884 18.2744C37.994 17.9736 37.5214 17.5618 37.1705 17.0391C36.8267 16.5091 36.6548 15.9076 36.6548 15.2344C36.6548 14.6257 36.7694 14.085 36.9986 13.6123C37.2278 13.1396 37.5643 12.7422 38.0084 12.4199C38.4595 12.0905 39.0217 11.8434 39.6949 11.6787C40.3681 11.5068 41.1487 11.4209 42.0367 11.4209H43.8306Z"
    fill="#fff" />
  <path
    d="M52.4562 9.2832V18.5H49.3517V6.87695H52.2628L52.4562 9.2832ZM52.0265 12.2803H51.1671C51.1671 11.471 51.2638 10.7262 51.4571 10.0459C51.6577 9.3584 51.9477 8.764 52.3273 8.2627C52.714 7.75423 53.1902 7.36035 53.756 7.08105C54.3217 6.80176 54.977 6.66211 55.7218 6.66211C56.2374 6.66211 56.7101 6.74089 57.1398 6.89844C57.5695 7.04883 57.9383 7.28874 58.2462 7.61816C58.5613 7.94043 58.8048 8.36296 58.9767 8.88574C59.1486 9.40137 59.2345 10.0208 59.2345 10.7441V18.5H56.1407V11.0879C56.1407 10.5579 56.0691 10.1497 55.9259 9.86328C55.7827 9.57682 55.5786 9.3763 55.3136 9.26172C55.0558 9.14714 54.7443 9.08984 54.379 9.08984C53.978 9.08984 53.6271 9.1722 53.3263 9.33691C53.0327 9.50163 52.7892 9.73079 52.5958 10.0244C52.4025 10.3109 52.2592 10.6475 52.1661 11.0342C52.073 11.4209 52.0265 11.8363 52.0265 12.2803ZM58.9445 11.9258L57.838 12.0654C57.838 11.3063 57.9311 10.6009 58.1173 9.94922C58.3107 9.29753 58.5935 8.72461 58.9659 8.23047C59.3455 7.73633 59.8146 7.35319 60.3732 7.08105C60.9318 6.80176 61.5763 6.66211 62.3068 6.66211C62.8653 6.66211 63.3738 6.74447 63.8321 6.90918C64.2905 7.06673 64.6808 7.32096 65.003 7.67188C65.3325 8.01562 65.5831 8.4668 65.755 9.02539C65.934 9.58398 66.0236 10.2679 66.0236 11.0771V18.5H62.9191V11.0771C62.9191 10.54 62.8474 10.1318 62.7042 9.85254C62.5681 9.56608 62.3676 9.36914 62.1027 9.26172C61.8448 9.14714 61.5369 9.08984 61.1788 9.08984C60.8064 9.08984 60.4806 9.16504 60.2013 9.31543C59.922 9.45866 59.6892 9.65918 59.503 9.91699C59.3168 10.1748 59.1772 10.4756 59.0841 10.8193C58.991 11.1559 58.9445 11.5247 58.9445 11.9258Z"
    fill="#fff" />
  <path
    d="M68.8591 2H71.9528V15.8359L71.6413 18.5H68.8591V2ZM79.3112 12.5703V12.7959C79.3112 13.6624 79.2181 14.4574 79.0319 15.1807C78.8529 15.904 78.5736 16.5306 78.194 17.0605C77.8145 17.5833 77.3418 17.9915 76.7761 18.2852C76.2175 18.5716 75.5586 18.7148 74.7995 18.7148C74.0905 18.7148 73.4746 18.5716 72.9518 18.2852C72.4362 17.9987 72.0029 17.5941 71.652 17.0713C71.3011 16.5485 71.0182 15.9362 70.8034 15.2344C70.5886 14.5326 70.4274 13.7663 70.32 12.9355V12.4414C70.4274 11.6107 70.5886 10.8444 70.8034 10.1426C71.0182 9.44076 71.3011 8.82845 71.652 8.30566C72.0029 7.78288 72.4362 7.37826 72.9518 7.0918C73.4675 6.80534 74.0762 6.66211 74.778 6.66211C75.5443 6.66211 76.2103 6.80892 76.7761 7.10254C77.349 7.389 77.8216 7.7972 78.194 8.32715C78.5736 8.84993 78.8529 9.47298 79.0319 10.1963C79.2181 10.9124 79.3112 11.7038 79.3112 12.5703ZM76.2175 12.7959V12.5703C76.2175 12.0977 76.1817 11.6536 76.11 11.2383C76.0456 10.8158 75.931 10.4469 75.7663 10.1318C75.6016 9.80957 75.376 9.55534 75.0895 9.36914C74.8102 9.18294 74.4486 9.08984 74.0046 9.08984C73.582 9.08984 73.224 9.16146 72.9304 9.30469C72.6367 9.44792 72.3932 9.64844 72.1999 9.90625C72.0137 10.1641 71.874 10.472 71.7809 10.8301C71.6878 11.181 71.6305 11.5677 71.6091 11.9902V13.3975C71.6305 13.9632 71.7236 14.4645 71.8884 14.9014C72.0602 15.3311 72.318 15.6712 72.6618 15.9219C73.0127 16.1654 73.4675 16.2871 74.0261 16.2871C74.4629 16.2871 74.8246 16.2012 75.111 16.0293C75.3975 15.8574 75.6195 15.6139 75.777 15.2988C75.9417 14.9837 76.0563 14.6149 76.1208 14.1924C76.1852 13.7627 76.2175 13.2972 76.2175 12.7959Z"
    fill="#fff" />
  <path
    d="M88.5383 15.9648V2H91.6535V18.5H88.8498L88.5383 15.9648ZM81.1907 12.8281V12.6025C81.1907 11.7145 81.2909 10.9089 81.4914 10.1855C81.692 9.45508 81.9856 8.82845 82.3723 8.30566C82.759 7.78288 83.2353 7.37826 83.801 7.0918C84.3668 6.80534 85.0113 6.66211 85.7346 6.66211C86.4149 6.66211 87.0093 6.80534 87.5178 7.0918C88.0334 7.37826 88.4703 7.78646 88.8284 8.31641C89.1936 8.83919 89.4872 9.45866 89.7092 10.1748C89.9312 10.8838 90.0924 11.6608 90.1926 12.5059V13C90.0924 13.8092 89.9312 14.5612 89.7092 15.2559C89.4872 15.9505 89.1936 16.5592 88.8284 17.082C88.4703 17.5977 88.0334 17.9987 87.5178 18.2852C87.0022 18.5716 86.4006 18.7148 85.7131 18.7148C84.9898 18.7148 84.3453 18.568 83.7795 18.2744C83.2209 17.9808 82.7483 17.569 82.3616 17.0391C81.982 16.5091 81.692 15.8861 81.4914 15.1699C81.2909 14.4538 81.1907 13.6732 81.1907 12.8281ZM84.2844 12.6025V12.8281C84.2844 13.3079 84.3202 13.7555 84.3918 14.1709C84.4706 14.5863 84.5959 14.9551 84.7678 15.2773C84.9468 15.5924 85.176 15.8395 85.4553 16.0186C85.7418 16.1904 86.0891 16.2764 86.4973 16.2764C87.0273 16.2764 87.4641 16.1582 87.8078 15.9219C88.1516 15.6784 88.413 15.3454 88.592 14.9229C88.7782 14.5003 88.8856 14.0133 88.9143 13.4619V12.0547C88.8928 11.6035 88.8284 11.1989 88.7209 10.8408C88.6207 10.4756 88.4703 10.1641 88.2698 9.90625C88.0764 9.64844 87.8329 9.44792 87.5393 9.30469C87.2528 9.16146 86.9127 9.08984 86.5188 9.08984C86.1177 9.08984 85.774 9.18294 85.4875 9.36914C85.2011 9.54818 84.9683 9.79525 84.7893 10.1104C84.6174 10.4255 84.4885 10.7979 84.4026 11.2275C84.3238 11.6501 84.2844 12.1084 84.2844 12.6025Z"
    fill="#fff" />
  <path
    d="M100.784 15.8789V10.7012C100.784 10.3288 100.723 10.0101 100.601 9.74512C100.48 9.47298 100.29 9.26172 100.032 9.11133C99.7814 8.96094 99.4555 8.88574 99.0545 8.88574C98.7107 8.88574 98.4135 8.94661 98.1629 9.06836C97.9122 9.18294 97.7189 9.35124 97.5828 9.57324C97.4467 9.78809 97.3787 10.0423 97.3787 10.3359H94.285C94.285 9.8418 94.3995 9.37272 94.6287 8.92871C94.8579 8.4847 95.1909 8.0944 95.6277 7.75781C96.0646 7.41406 96.5838 7.14551 97.1853 6.95215C97.7941 6.75879 98.4744 6.66211 99.2264 6.66211C100.129 6.66211 100.931 6.8125 101.633 7.11328C102.334 7.41406 102.886 7.86523 103.287 8.4668C103.695 9.06836 103.899 9.82031 103.899 10.7227V15.6963C103.899 16.3337 103.939 16.8564 104.017 17.2646C104.096 17.6657 104.211 18.0166 104.361 18.3174V18.5H101.235C101.085 18.1849 100.97 17.791 100.891 17.3184C100.82 16.8385 100.784 16.3587 100.784 15.8789ZM101.192 11.4209L101.214 13.1719H99.4842C99.076 13.1719 98.7215 13.2184 98.4207 13.3115C98.1199 13.4046 97.8728 13.5371 97.6795 13.709C97.4861 13.8737 97.3429 14.0671 97.2498 14.2891C97.1639 14.5111 97.1209 14.7546 97.1209 15.0195C97.1209 15.2845 97.1818 15.5244 97.3035 15.7393C97.4253 15.9469 97.6007 16.1117 97.8299 16.2334C98.059 16.348 98.3276 16.4053 98.6355 16.4053C99.101 16.4053 99.5057 16.3122 99.8494 16.126C100.193 15.9398 100.458 15.7106 100.644 15.4385C100.838 15.1663 100.938 14.9085 100.945 14.665L101.762 15.9756C101.647 16.2692 101.489 16.5736 101.289 16.8887C101.096 17.2038 100.848 17.501 100.548 17.7803C100.247 18.0524 99.8852 18.278 99.4627 18.457C99.0402 18.6289 98.5389 18.7148 97.9588 18.7148C97.2212 18.7148 96.5516 18.568 95.95 18.2744C95.3556 17.9736 94.8829 17.5618 94.532 17.0391C94.1883 16.5091 94.0164 15.9076 94.0164 15.2344C94.0164 14.6257 94.131 14.085 94.3602 13.6123C94.5893 13.1396 94.9259 12.7422 95.3699 12.4199C95.8211 12.0905 96.3833 11.8434 97.0564 11.6787C97.7296 11.5068 98.5102 11.4209 99.3982 11.4209H101.192Z"
    fill="#fff" />
  <defs>
    <linearGradient id="paint0_linear_506_273" x1="-0.143853" y1="20.4422" x2="6.99772" y2="9.00196"
      gradientUnits="userSpaceOnUse">
      <stop offset="0.11" stop-color="#5B63D3" />
      <stop offset="0.25" stop-color="#5659CA" />
      <stop offset="0.49" stop-color="#4940B4" />
      <stop offset="0.79" stop-color="#351690" />
      <stop offset="0.94" stop-color="#2A007D" />
    </linearGradient>
    <linearGradient id="paint1_linear_506_273" x1="4.70541" y1="3.47964" x2="14.2737" y2="20.6919"
      gradientUnits="userSpaceOnUse">
      <stop offset="0.11" stop-color="#5B63D3" />
      <stop offset="0.25" stop-color="#5659CA" />
      <stop offset="0.49" stop-color="#4940B4" />
      <stop offset="0.79" stop-color="#351690" />
      <stop offset="0.94" stop-color="#2A007D" />
    </linearGradient>
    <linearGradient id="paint2_linear_506_273" x1="8.64062" y1="17.61" x2="17.5802" y2="17.61"
      gradientUnits="userSpaceOnUse">
      <stop offset="0.11" stop-color="#5B63D3" />
      <stop offset="0.25" stop-color="#5659CA" />
      <stop offset="0.49" stop-color="#4940B4" />
      <stop offset="0.79" stop-color="#351690" />
      <stop offset="0.94" stop-color="#2A007D" />
    </linearGradient>
  </defs>
</svg>